<?xml version="1.0" encoding="iso-8859-1"?>
<!-- Uploaded to: SVG Repo, www.svgrepo.com, Generator: SVG Repo Mixer Tools -->
<svg fill="#000000" height="800px" width="800px" version="1.1" id="Layer_1" xmlns="http://www.w3.org/2000/svg" xmlns:xlink="http://www.w3.org/1999/xlink" 
	 viewBox="0 0 512 512" xml:space="preserve">
<g>
	<g>
		<path d="M448,246.857h-34.039l-43.538-26.121c-1.426-0.859-3.045-1.307-4.709-1.307h-55.963c0.722-2.953,1.106-6.016,1.106-9.143
			c0-3.611-0.558-7.113-1.518-10.487l39.881-7.982c2.377-0.466,4.471-1.874,5.815-3.886l36.571-54.857
			c0.997-1.499,1.536-3.273,1.536-5.074V57.627l16.75-25.125c2.807-4.206,1.673-9.883-2.533-12.681
			c-4.215-2.807-9.883-1.673-12.681,2.533l-18.286,27.429c-0.997,1.499-1.536,3.273-1.536,5.074v70.373l-32.942,49.408
			l-41.975,8.393c-2.295-2.56-4.891-4.91-7.762-7.022c16.576-9.253,27.822-26.953,27.822-47.25v-19.803
			c0-16.247-7.232-30.802-18.606-40.731C312.448,61.925,320,50.176,320,36.571C320,16.402,303.598,0,283.429,0
			c-5.056,0-9.143,4.096-9.143,9.143c0,5.047,4.087,9.143,9.143,9.143c10.085,0,18.286,8.201,18.286,18.286
			c0,10.085-8.201,18.286-18.286,18.286c-1.81,0-3.401,0.658-4.818,1.573c-4.087-0.997-8.32-1.573-12.699-1.573h-19.822
			c-4.379,0-8.613,0.576-12.699,1.573c-1.417-0.914-3.008-1.573-4.818-1.573c-10.085,0-18.286-8.201-18.286-18.286
			c0-10.085,8.201-18.286,18.286-18.286c5.056,0,9.143-4.096,9.143-9.143c0-5.047-4.087-9.143-9.143-9.143
			C208.402,0,192,16.402,192,36.571c0,13.605,7.552,25.353,18.606,31.653C199.232,78.153,192,92.709,192,108.955v19.803
			c0,20.297,11.246,37.998,27.822,47.25c-2.871,2.112-5.467,4.462-7.762,7.022l-41.975-8.393l-32.942-49.408V54.857
			c0-1.801-0.539-3.575-1.536-5.074l-18.286-27.429c-2.798-4.206-8.466-5.339-12.681-2.533c-4.206,2.798-5.339,8.475-2.533,12.681
			l16.75,25.125V128c0,1.801,0.539,3.575,1.536,5.074l36.571,54.857c1.344,2.011,3.438,3.419,5.815,3.886l39.881,7.982
			c-0.96,3.374-1.518,6.875-1.518,10.487c0,3.127,0.384,6.19,1.106,9.143h-55.963c-1.664,0-3.282,0.448-4.709,1.307l-43.538,26.121
			H64c-5.056,0-9.143,4.096-9.143,9.143s4.087,9.143,9.143,9.143h36.571c1.664,0,3.282-0.448,4.709-1.307l43.538-26.121h61.467
			c0.585,0,1.088-0.229,1.637-0.329c4.471,5.029,10.121,9.271,16.649,12.425v10.313l-96.338,61.303
			c-2.139,1.362-3.611,3.538-4.069,6.034l-26.917,143.506l-25.426,25.426c-3.575,3.575-3.575,9.353,0,12.928
			c1.783,1.783,4.123,2.679,6.464,2.679s4.681-0.896,6.464-2.679l27.429-27.429c1.307-1.307,2.176-2.971,2.514-4.782l26.706-142.382
			l83.173-52.928v25.298c-26.77,10.88-45.714,37.129-45.714,67.758v36.571c0,40.329,32.814,73.143,73.143,73.143
			s73.143-32.814,73.143-73.143v-36.571c0-30.629-18.944-56.878-45.714-67.758v-25.298l83.173,52.928l26.706,142.382
			c0.338,1.81,1.207,3.474,2.514,4.782l27.429,27.429c1.783,1.783,4.123,2.679,6.464,2.679s4.681-0.896,6.464-2.679
			c3.575-3.575,3.575-9.353,0-12.928l-25.426-25.426l-26.917-143.506c-0.457-2.496-1.929-4.672-4.069-6.034l-96.338-61.303V249.81
			c6.528-3.154,12.178-7.397,16.649-12.425c0.549,0.101,1.051,0.329,1.637,0.329h61.467l43.538,26.121
			c1.426,0.859,3.045,1.307,4.709,1.307H448c5.056,0,9.143-4.096,9.143-9.143S453.056,246.857,448,246.857z"/>
	</g>
</g>
</svg>