<svg xmlns="http://www.w3.org/2000/svg" version="1.0" width="1172.000000pt" height="1280.000000pt" viewBox="0 0 1172.000000 1280.000000" preserveAspectRatio="xMidYMid meet">
<metadata fill="#ed0b0b">
Created by potrace 1.15, written by Peter Selinger 2001-2017
</metadata>
<g transform="translate(0.000000,1280.000000) scale(0.100000,-0.100000)" fill="#ed0b0b" stroke="none">
<path d="M4534 12748 c-201 -190 -735 -1057 -823 -1338 -15 -45 -24 -101 -25 -140 0 -95 19 -124 125 -181 46 -25 156 -92 244 -149 204 -132 403 -252 558 -336 67 -37 123 -68 125 -70 2 -1 -12 -40 -31 -85 -156 -378 -258 -927 -257 -1378 1 -296 88 -466 283 -556 96 -44 183 -63 358 -77 l147 -12 -84 -47 c-211 -118 -386 -292 -502 -499 -38 -67 -99 -218 -108 -265 -3 -19 -8 -35 -10 -35 -2 0 -61 33 -131 73 -349 201 -824 425 -1234 582 -206 78 -207 79 -894 516 -291 185 -576 363 -632 395 -66 38 -108 69 -119 89 -29 50 -242 332 -348 460 -314 378 -540 594 -627 598 -32 2 -34 0 -37 -32 -9 -89 174 -384 551 -891 267 -358 382 -496 561 -675 358 -356 667 -552 1181 -750 202 -77 230 -92 268 -134 309 -349 723 -592 1209 -710 68 -16 139 -32 159 -36 34 -5 37 -8 43 -52 3 -25 6 -89 6 -142 0 -53 7 -170 15 -260 8 -90 14 -165 12 -167 -1 -1 -90 20 -197 47 -323 84 -589 138 -900 185 -160 24 -422 25 -555 1 -397 -72 -902 -202 -1295 -334 -107 -36 -217 -67 -245 -69 -27 -3 -234 -11 -460 -19 -444 -16 -596 -27 -719 -51 -231 -45 -179 -118 119 -169 247 -42 850 -69 1010 -45 47 7 173 11 305 10 281 -2 640 29 1230 105 299 39 492 57 537 50 49 -7 351 -90 879 -241 l381 -109 13 -50 c59 -245 140 -443 285 -706 25 -45 45 -83 45 -84 0 -1 -35 -5 -77 -9 -545 -47 -1362 -477 -1954 -1029 -251 -234 -1303 -1300 -1366 -1385 -130 -173 -204 -397 -248 -752 -64 -512 -25 -1193 91 -1580 44 -147 113 -235 153 -196 36 37 34 157 -14 775 -27 343 -34 762 -15 939 35 316 108 519 233 640 102 100 277 235 862 667 441 325 630 471 727 562 121 113 214 164 678 370 232 103 501 232 590 283 30 17 42 22 25 9 -65 -48 -224 -218 -272 -289 -102 -151 -167 -313 -199 -490 -14 -73 -17 -146 -16 -315 3 -479 74 -910 214 -1285 253 -679 720 -1138 1281 -1257 109 -23 352 -23 454 0 432 99 820 410 1083 868 233 407 363 914 390 1525 17 398 -15 594 -140 832 -71 137 -223 317 -345 411 -19 14 -9 11 25 -9 88 -51 358 -180 590 -283 458 -203 553 -254 664 -357 104 -96 214 -182 661 -515 841 -626 950 -714 1014 -814 66 -102 117 -261 148 -461 28 -176 25 -736 -4 -1080 -55 -627 -50 -759 27 -735 140 44 265 840 231 1466 -18 326 -46 515 -107 723 -47 161 -103 269 -197 383 -83 101 -1077 1102 -1330 1341 -84 78 -194 176 -245 216 -576 456 -1270 789 -1694 813 -54 3 -98 7 -98 8 0 0 49 98 108 216 108 213 165 361 212 550 l22 87 196 55 c281 80 629 177 832 234 172 47 177 48 315 47 97 -1 228 -12 425 -37 777 -98 1014 -116 1450 -105 14 0 57 -5 95 -12 51 -9 151 -11 365 -7 555 11 930 73 930 153 0 22 -71 52 -161 68 -134 24 -285 35 -744 51 -236 9 -448 20 -470 25 -22 5 -112 34 -200 64 -338 117 -891 261 -1257 328 -170 31 -412 31 -623 -1 -220 -33 -558 -102 -825 -170 -129 -32 -237 -57 -239 -55 -2 1 4 81 13 176 8 95 18 232 22 304 l6 130 123 27 c483 106 881 317 1190 632 72 73 148 141 170 152 22 11 114 48 205 83 334 125 650 302 905 504 149 119 424 399 561 571 359 455 698 941 779 1120 42 90 48 117 31 140 -54 75 -345 -198 -751 -705 -72 -91 -161 -208 -198 -260 -36 -52 -74 -103 -84 -114 -10 -10 -72 -50 -138 -89 -66 -38 -349 -215 -630 -392 -280 -177 -546 -343 -591 -369 -44 -26 -190 -91 -325 -145 -134 -54 -307 -126 -384 -161 -253 -112 -661 -321 -876 -449 l-36 -21 -33 92 c-109 314 -324 566 -612 718 l-67 36 147 12 c255 21 395 69 499 173 104 103 143 235 143 476 -1 467 -109 1036 -264 1387 -28 64 -35 55 89 121 136 73 285 163 550 330 132 84 264 165 294 181 79 42 96 69 95 157 0 119 -57 262 -210 535 -328 581 -653 1035 -715 997 -42 -26 69 -446 217 -817 55 -140 196 -423 252 -508 28 -41 69 -95 91 -119 23 -24 40 -45 39 -46 -2 0 -64 -16 -138 -34 -175 -43 -296 -88 -448 -167 -105 -54 -161 -88 -317 -190 -21 -14 -25 -11 -86 73 -122 168 -310 337 -461 414 -192 97 -412 124 -612 73 -89 -22 -249 -103 -342 -173 -97 -72 -231 -211 -311 -321 l-57 -79 -26 16 c-298 198 -556 316 -810 369 -47 10 -87 19 -89 21 -2 1 17 25 42 52 94 100 201 290 315 556 120 282 237 660 249 808 5 68 4 77 -11 77 -10 0 -42 -23 -72 -52z" fill="#ed0b0b"/>
</g>
</svg>